# xmcd
#
# Track frame offsets: 
#        150
#        17418
#        30777
#        46397
#        63526
#        78235
#        97858
#        110699
#        129664
#        149774
#        167951
#        184416
#
# Disc length: 2698 seconds
#
# Revision: 0
# Processed by: cddbd v1.5.2PL0 Copyright (c) Steve Scherf et al.
# Submitted via: ExactAudioCopy v0.95a4
#
DISCID=9f0a880c
DTITLE=Miguel Bicca - Veredas
DYEAR=2006
DGENRE=Nativista
TTITLE0=Meu Pago
TTITLE1=Estradeiro
TTITLE2=Campo raso
TTITLE3=Afinal, Por Que Será?
TTITLE4=A Caminho do Cantão
TTITLE5=Bem-Vinda
TTITLE6=Barco Perdido
TTITLE7=Licurgo
TTITLE8=Meu Lugar
TTITLE9=Espera
TTITLE10=Moto Bagula
TTITLE11=Falta Alguém nesta Morada
EXTD=
EXTT0=
EXTT1=
EXTT2=
EXTT3=
EXTT4=
EXTT5=
EXTT6=
EXTT7=
EXTT8=
EXTT9=
EXTT10=
EXTT11=
PLAYORDER=
